<?xml version="1.0" encoding="utf-8"?>
<!-- Generator: Adobe Illustrator 18.1.1, SVG Export Plug-In . SVG Version: 6.00 Build 0)  -->
<!DOCTYPE svg PUBLIC "-//W3C//DTD SVG 1.1//EN" "http://www.w3.org/Graphics/SVG/1.1/DTD/svg11.dtd">
<svg version="1.1" id="Layer_1" xmlns="http://www.w3.org/2000/svg" xmlns:xlink="http://www.w3.org/1999/xlink" x="0px" y="0px"
	 width="50px" height="50px" viewBox="462 0 50 50" enable-background="new 462 0 50 50" xml:space="preserve">
<g id="google-plus-icon">
	<path d="M512,11.6h-6.6v6.6h-3.3v-6.6h-6.6V8.3h6.6V1.7h3.3v6.6h6.6V11.6z M493.3,39c0,5-4.5,11-15.9,11c-8.3,0-15.3-3.6-15.3-9.6
		c0-4.7,3-10.7,16.8-10.7c-2.1-1.7-2.6-4-1.3-6.5c-8.1,0-12.2-4.8-12.2-10.8c0-5.9,4.4-11.3,13.3-11.3c2.3,0,14.3,0,14.3,0l-3.2,3.4
		H486c2.7,1.5,4.1,4.7,4.1,8.1c0,3.2-1.7,5.7-4.2,7.7c-4.4,3.4-3.3,5.3,1.3,8.7C491.8,32.3,493.3,35,493.3,39z M484.3,12.7
		c-0.7-5.1-4-9.2-7.8-9.4c-3.9-0.1-6.5,3.8-5.8,8.9c0.7,5.1,4.3,8.6,8.2,8.7C482.8,21.1,485,17.8,484.3,12.7z M488.3,39.5
		c0-4.2-3.8-8.2-10.2-8.2c-5.8-0.1-10.6,3.6-10.6,7.9c0,4.4,4.2,8,9.9,8C484.8,47.3,488.3,43.9,488.3,39.5z"/>
</g>
</svg>
