<?xml version="1.0" encoding="utf-8"?>
<!-- Generator: Adobe Illustrator 18.1.1, SVG Export Plug-In . SVG Version: 6.00 Build 0)  -->
<!DOCTYPE svg PUBLIC "-//W3C//DTD SVG 1.1//EN" "http://www.w3.org/Graphics/SVG/1.1/DTD/svg11.dtd">
<svg version="1.1" id="instagram_solid" xmlns="http://www.w3.org/2000/svg" xmlns:xlink="http://www.w3.org/1999/xlink" x="0px"
	 y="0px" width="50px" height="50px" viewBox="0 0 50 50" enable-background="new 0 0 50 50" xml:space="preserve">
<path d="M38.6,27.9c0,7.2-6.1,13-13.6,13c-7.5,0-13.6-5.8-13.6-13c0-2.2,0.6-4.3,1.6-6.2H0.1v23c0,0.7,0.6,1.2,1.2,1.2h47.3
	c0.7,0,1.2-0.5,1.2-1.2v-23H37C38,23.5,38.6,25.6,38.6,27.9z M48.7,4.1H1.3c-0.7,0-1.2,0.5-1.2,1.2v13h15.7c2.4-2.1,5.6-3.4,9.2-3.4
	c3.5,0,6.8,1.3,9.2,3.4h15.7v-13C49.9,4.7,49.4,4.1,48.7,4.1z M45.2,14.7h-6.5V8.4h6.5V14.7z M25,38.5c6.2,0,11.2-4.8,11.2-10.7
	c0-5.9-5-10.7-11.2-10.7c-6.2,0-11.2,4.8-11.2,10.7C13.8,33.7,18.8,38.5,25,38.5z"/>
</svg>
