<?xml version="1.0" encoding="utf-8"?>
<!-- Generator: Adobe Illustrator 19.1.0, SVG Export Plug-In . SVG Version: 6.00 Build 0)  -->
<svg version="1.1" id="Layer_1" xmlns="http://www.w3.org/2000/svg" xmlns:xlink="http://www.w3.org/1999/xlink" x="0px" y="0px"
	 width="50px" height="50px" viewBox="0 0 50 50" style="enable-background:new 0 0 50 50;" xml:space="preserve">
<style type="text/css">
	.st0{fill:#010101;}
</style>
<path class="st0" d="M17.9,16.2h9.8v5h0.1c1.4-2.4,4.7-5,9.7-5c10.3,0,12.2,6.4,12.2,14.8v17H39.6V32.9c0-3.6-0.1-8.2-5.3-8.2
	c-5.3,0-6.1,3.9-6.1,8V48H17.9V16.2z"/>
<path class="st0" d="M0.3,16.2h10.6V48H0.3V16.2z"/>
<path class="st0" d="M10.9,7.3c0,2.9-2.4,5.3-5.3,5.3s-5.3-2.4-5.3-5.3S2.6,2,5.6,2S10.9,4.4,10.9,7.3z"/>
</svg>
