<?xml version="1.0" encoding="utf-8"?>
<!-- Generator: Adobe Illustrator 18.1.1, SVG Export Plug-In . SVG Version: 6.00 Build 0)  -->
<!DOCTYPE svg PUBLIC "-//W3C//DTD SVG 1.1//EN" "http://www.w3.org/Graphics/SVG/1.1/DTD/svg11.dtd">
<svg version="1.1" id="magnify" xmlns="http://www.w3.org/2000/svg" xmlns:xlink="http://www.w3.org/1999/xlink" x="0px" y="0px"
	 width="50px" height="50px" viewBox="0 0 50 50" enable-background="new 0 0 50 50" xml:space="preserve">
<g>
	<path d="M38.2,19c0-10.5-8.6-19-19.1-19C8.6,0,0,8.5,0,19s8.6,19,19.1,19S38.2,29.4,38.2,19z M19.1,31.4c-6.9,0-12.6-5.6-12.6-12.5
		c0-6.9,5.6-12.5,12.6-12.5c6.9,0,12.6,5.6,12.6,12.5C31.7,25.8,26,31.4,19.1,31.4z"/>
	<path d="M38.4,32.3c-1.7,2.4-3.9,4.5-6.4,6.2l11.4,11.3l6.3-6.2L38.4,32.3z"/>
</g>
</svg>
