<?xml version="1.0" encoding="utf-8"?>
<!-- Generator: Adobe Illustrator 18.1.1, SVG Export Plug-In . SVG Version: 6.00 Build 0)  -->
<!DOCTYPE svg PUBLIC "-//W3C//DTD SVG 1.1//EN" "http://www.w3.org/Graphics/SVG/1.1/DTD/svg11.dtd">
<svg version="1.1" id="Layer_1" xmlns="http://www.w3.org/2000/svg" xmlns:xlink="http://www.w3.org/1999/xlink" x="0px" y="0px"
	 width="50px" height="50px" viewBox="462 0 50 50" enable-background="new 462 0 50 50" xml:space="preserve">
<path id="pinterest-icon" d="M488.2-0.2c-13.7,0-20.5,9.8-20.5,18c0,4.9,1.9,9.3,5.9,11c0.7,0.3,1.2,0,1.4-0.7
	c0.1-0.5,0.4-1.8,0.6-2.3c0.2-0.7,0.1-1-0.4-1.6c-1.2-1.4-1.9-3.1-1.9-5.6c0-7.3,5.4-13.8,14.2-13.8c7.7,0,12,4.7,12,11
	c0,8.3-3.7,15.3-9.1,15.3c-3,0-5.3-2.5-4.5-5.5c0.9-3.6,2.5-7.6,2.5-10.2c0-2.4-1.3-4.3-3.9-4.3c-3.1,0-5.5,3.2-5.5,7.4
	c0,2.7,0.9,4.5,0.9,4.5s-3.1,13.3-3.7,15.7c-1.1,4.6-0.2,10.3-0.1,10.9c0,0.3,0.5,0.4,0.7,0.2c0.3-0.4,3.9-4.9,5.2-9.4
	c0.4-1.3,2-7.9,2-7.9c1,1.9,3.9,3.6,7,3.6c9.2,0,15.5-8.4,15.5-19.7C506.4,7.7,499.1-0.2,488.2-0.2z"/>
</svg>
