<?xml version="1.0" encoding="utf-8"?>
<!-- Generator: Adobe Illustrator 18.1.1, SVG Export Plug-In . SVG Version: 6.00 Build 0)  -->
<!DOCTYPE svg PUBLIC "-//W3C//DTD SVG 1.1//EN" "http://www.w3.org/Graphics/SVG/1.1/DTD/svg11.dtd">
<svg version="1.1" id="Layer_1" xmlns="http://www.w3.org/2000/svg" xmlns:xlink="http://www.w3.org/1999/xlink" x="0px" y="0px"
	 width="50px" height="50px" viewBox="462 0 50 50" enable-background="new 462 0 50 50" xml:space="preserve">
<path id="twitter-icon" d="M512.1,9.7c-1.8,0.8-3.8,1.4-5.8,1.6c2.1-1.3,3.7-3.2,4.5-5.6c-2,1.2-4.1,2-6.4,2.5
	c-1.9-2-4.5-3.2-7.4-3.2c-6.6,0-11.4,6.1-9.9,12.5c-8.4-0.4-15.9-4.5-20.9-10.6c-2.7,4.6-1.4,10.5,3.1,13.6
	c-1.7-0.1-3.2-0.5-4.6-1.3c-0.1,4.7,3.3,9.1,8.1,10.1c-1.4,0.4-3,0.5-4.6,0.2c1.3,4,5,7,9.5,7c-4.3,3.3-9.6,4.8-15,4.2
	c4.5,2.9,9.8,4.6,15.6,4.6c18.8,0,29.5-15.9,28.9-30.2C509,13.5,510.8,11.7,512.1,9.7z"/>
</svg>
