<?xml version="1.0" encoding="utf-8"?>
<!-- Generator: Adobe Illustrator 18.1.1, SVG Export Plug-In . SVG Version: 6.00 Build 0)  -->
<!DOCTYPE svg PUBLIC "-//W3C//DTD SVG 1.1//EN" "http://www.w3.org/Graphics/SVG/1.1/DTD/svg11.dtd">
<svg version="1.1" id="Layer_1" xmlns="http://www.w3.org/2000/svg" xmlns:xlink="http://www.w3.org/1999/xlink" x="0px" y="0px"
	 width="50px" height="50px" viewBox="462 0 50 50" enable-background="new 462 0 50 50" xml:space="preserve">
<path id="youtube-new-icon" d="M511.6,15.8c-0.8-6.7-3.4-7.6-8.7-8c-7.5-0.5-24.2-0.5-31.7,0c-5.3,0.4-7.9,1.3-8.7,8
	c-0.6,5-0.6,13.4,0,18.4c0.8,6.7,3.4,7.6,8.7,8c7.5,0.5,24.2,0.5,31.7,0c5.3-0.4,7.9-1.3,8.7-8C512.1,29.2,512.1,20.8,511.6,15.8z
	 M482,32V18l13.4,7L482,32z"/>
</svg>
