<?xml version="1.0" encoding="utf-8"?>
<!-- Generator: Adobe Illustrator 18.1.1, SVG Export Plug-In . SVG Version: 6.00 Build 0)  -->
<!DOCTYPE svg PUBLIC "-//W3C//DTD SVG 1.1//EN" "http://www.w3.org/Graphics/SVG/1.1/DTD/svg11.dtd">
<svg version="1.1" id="Layer_1" xmlns="http://www.w3.org/2000/svg" xmlns:xlink="http://www.w3.org/1999/xlink" x="0px" y="0px"
	 width="50px" height="50px" viewBox="462 0 50 50" enable-background="new 462 0 50 50" xml:space="preserve">
<path id="youtube-icon" d="M471.7,0h3l2.1,7.7l1.9-7.7h3l-3.5,11.5v7.8h-3v-7.8L471.7,0z M481.6,15.7c0,2.5,1.3,3.8,3.9,3.8
	c2.1,0,3.8-1.4,3.8-3.8v-7c0-2.2-1.7-3.8-3.8-3.8c-2.3,0-3.9,1.5-3.9,3.8V15.7z M484.3,9c0-0.8,0.4-1.4,1.1-1.4
	c0.8,0,1.2,0.6,1.2,1.4v6.6c0,0.8-0.4,1.3-1.1,1.3c-0.7,0-1.2-0.6-1.2-1.3V9z M496.4,5.1v10.8c-0.3,0.4-1,1.1-1.6,1.1
	c-0.6,0-0.7-0.4-0.7-1V5.1h-2.6V17c0,1.4,0.4,2.5,1.8,2.5c0.8,0,1.9-0.4,3.1-1.8v1.6h2.6V5.1H496.4z M492.5,34.2
	c0.2,0.2,0.3,0.6,0.3,1v7c0,0.4-0.1,0.7-0.2,0.9c-0.3,0.4-0.9,0.3-1.3,0.1c-0.2-0.1-0.4-0.3-0.6-0.5v-8.4c0.2-0.2,0.3-0.3,0.5-0.4
	C491.6,33.8,492.2,33.8,492.5,34.2z M501,33.9c-0.9,0-1.1,0.7-1.1,1.6v1.4h2.2v-1.4C502.1,34.6,501.9,33.9,501,33.9z M508.7,43.9
	c0,3.4-2.7,6.1-6.1,6.1h-31.2c-3.4,0-6.1-2.7-6.1-6.1V28.6c0-3.4,2.7-6.1,6.1-6.1h31.2c3.4,0,6.1,2.7,6.1,6.1L508.7,43.9L508.7,43.9
	z M475.6,29.7h2.9v-2.7h-8.7v2.7h2.9v15.7h2.8V29.7L475.6,29.7z M485.7,31.9h-2.5v10.3c-0.3,0.4-1,1-1.5,1c-0.5,0-0.7-0.4-0.7-0.9
	V31.9h-2.5v11.3c0,2.8,1.9,2.8,3.2,2c0.5-0.3,1-0.7,1.5-1.3v1.5h2.5V31.9z M495.4,35.1c0-1.8-0.6-3.4-2.5-3.4
	c-0.9,0-1.7,0.6-2.2,1.3v-5.9h-2.5v18.4h2.5v-1c0.7,0.9,1.5,1.2,2.4,1.2c1.7,0,2.3-1.3,2.3-3V35.1z M504.7,35.5c0-2.4-1.2-4-3.6-4
	c-2.3,0-3.8,1.6-3.8,4v6.1c0,2.4,1.2,4.2,3.6,4.2c2.7,0,3.8-1.6,3.8-4.2v-1h-2.6v0.9c0,1.2-0.1,1.9-1.1,1.9c-1,0-1.1-0.9-1.1-1.9V39
	h4.8L504.7,35.5L504.7,35.5z"/>
</svg>
